<svg width="512" height="512" viewBox="0 0 512 512" fill="none" xmlns="http://www.w3.org/2000/svg">
<rect width="512" height="512" fill="#282828"/>
<path fill-rule="evenodd" clip-rule="evenodd" d="M212 20.0244C100.466 40.69 16 138.481 16 256C16 373.519 100.466 471.31 212 491.976V440.879C128.282 421.03 66 345.788 66 256C66 166.212 128.282 90.9703 212 71.1206V20.0244ZM300 440.879C383.718 421.03 446 345.788 446 256C446 166.212 383.718 90.9703 300 71.1206V20.0244C411.534 40.69 496 138.481 496 256C496 373.519 411.534 471.31 300 491.976V440.879Z" fill="#FF0000"/>
<path fill-rule="evenodd" clip-rule="evenodd" d="M400.451 156.246L356.206 112L256.226 211.98L156.246 112L112 156.246L211.98 256.226L112 356.206L156.246 400.451L256.226 300.471L356.206 400.451L400.451 356.206L300.471 256.226L400.451 156.246Z" fill="white"/>
</svg>
